<svg width="25" height="25" viewBox="0 0 25 25" fill="none" xmlns="http://www.w3.org/2000/svg">
<path d="M12.5 0C5.59706 0 0 5.59706 0 12.5C0 19.4029 5.59706 25 12.5 25C19.4029 25 25 19.4029 25 12.5C25 5.59706 19.4046 0 12.5 0ZM12.081 19.0479C11.8302 18.8914 11.5576 18.7332 11.3203 18.5548C11.0174 18.331 10.7128 18.0836 10.4385 17.8211C10.3258 17.7268 10.0599 17.4324 9.95389 17.3196C9.77215 17.1278 9.60386 16.8905 9.43895 16.6835C9.28749 16.4563 9.12594 16.2308 8.993 15.9902C8.93578 15.8858 8.82135 15.6805 8.76414 15.5762C7.33206 12.7053 7.68713 9.15792 9.31947 6.46035C9.40361 6.32573 9.48438 6.20456 9.5803 6.07162C9.89668 5.6627 10.5244 6.00094 10.3611 6.49064C9.66444 8.91222 9.18821 11.5307 9.8647 14.0028C10.3376 15.7024 11.3372 17.0975 12.6195 18.3461C12.9863 18.7214 12.5337 19.307 12.0793 19.0462L12.081 19.0479ZM16.9881 11.9194C16.8518 12.4108 15.5291 12.4714 14.0095 12.4798C12.4882 12.4714 11.1672 12.4108 11.0292 11.9194C10.8879 11.4398 12.2055 10.6489 14.0095 10.6523C15.8118 10.6489 17.1311 11.4398 16.9881 11.9194ZM17.1227 7.57943C16.9847 8.07081 15.7041 8.14149 14.235 8.15159C12.7642 8.14317 11.4836 8.07081 11.3473 7.57943C11.2059 7.09983 12.4832 6.32068 14.235 6.32404C15.9868 6.32068 17.2641 7.09983 17.1227 7.57943Z" fill="#E31837"/>
</svg>